<svg id="Слой_1" data-name="Слой 1" xmlns="http://www.w3.org/2000/svg" width="667" height="900" viewBox="0 0 667 900">
  <defs>
    <style>
      .cls-1 {
        fill: #fff;
      }
    </style>
  </defs>
  <g>
    <path class="cls-1" d="M0,900V0H667V900Zm333.45123-9.67169c12.84207-20.75586,25.27729-40.557,37.41141-60.54077,15.28613-25.175,30.28952-50.52143,45.48291-75.753,15.44721-25.65314,31.235-51.105,46.4039-76.921,17.97733-30.59571,35.58637-61.41047,53.10584-92.27179,16.00842-28.19941,32.0368-56.39759,47.41711-84.94077,18.98151-35.22641,35.54144-71.5882,46.40759-110.22134,3.39429-12.06778,5.34876-24.59284,7.23261-37.01917,2.08917-13.78046,3.97882-27.65164,4.76251-41.5506a232.78268,232.78268,0,0,0-.95337-34.286,258.39832,258.39832,0,0,0-5.35089-35.42158,252.17694,252.17694,0,0,0-27.978-69.37047,258.80789,258.80789,0,0,0-39.45794-52.06842c-11.20209-11.32626-23.68445-21.4776-36.19178-31.40206-24.06579-19.09609-51.21386-32.7768-80.07373-42.97989-16.32556-5.77173-32.98877-10.54441-50.30777-12.50536-11.414-1.29235-22.79541-3.3762-34.23947-3.79582-24.45239-.8966-48.73941.50894-72.85562,5.65318a318.08591,318.08591,0,0,0-62.39368,19.928,282.669,282.669,0,0,0-58.19462,34.54607c-10.698,8.22366-20.77507,17.30449-30.6915,26.47552-5.29867,4.90039-9.5694,10.89662-14.46881,16.24739a205.8254,205.8254,0,0,0-33.80785,49.33412A431.40663,431.40663,0,0,0,54.3046,232.87216c-6.13119,18.40853-8.42882,37.73151-9.11924,57.12592a248.70888,248.70888,0,0,0,2.90818,49.93268c2.28981,13.7146,3.31961,27.7518,6.90519,41.10995a404.37243,404.37243,0,0,0,17.37309,51.41815c9.35241,22.31131,19.7828,44.22238,30.79084,65.77384,11.32159,22.16531,23.80389,43.74209,35.95,65.4805,8.62236,15.43182,17.466,30.74127,26.32747,46.03778,9.35229,16.14367,18.87131,32.19067,28.26511,48.31042,8.7353,14.98969,17.27606,30.09406,26.12953,45.01325,11.52354,19.41839,23.27371,38.70239,34.92178,58.04693,13.08182,21.72559,26.10373,43.48755,39.25708,65.16974,8.57208,14.13037,17.33426,28.14533,26.007,42.21466C324.38443,875.58521,328.73859,882.67035,333.45123,890.32831Z"/>
    <path d="M333.45123,890.32831c-4.71264-7.658-9.0668-14.7431-13.43063-21.82233-8.67273-14.06933-17.43491-28.08429-26.007-42.21466-13.15335-21.68219-26.17526-43.44415-39.25708-65.16974-11.64807-19.34454-23.39824-38.62854-34.92178-58.04693-8.85347-14.91919-17.39423-30.02356-26.12953-45.01325-9.3938-16.11975-18.91282-32.16675-28.26511-48.31042-8.86151-15.29651-17.70511-30.606-26.32747-46.03778-12.14609-21.73841-24.62839-43.31519-35.95-65.4805-11.008-21.55146-21.43843-43.46253-30.79084-65.77384a404.37243,404.37243,0,0,1-17.37309-51.41815c-3.58558-13.35815-4.61538-27.39535-6.90519-41.10995a248.70888,248.70888,0,0,1-2.90818-49.93268c.69042-19.39441,2.988-38.71739,9.11924-57.12592a431.40663,431.40663,0,0,1,20.40551-51.40758A205.8254,205.8254,0,0,1,108.518,132.13046c4.89941-5.35077,9.17014-11.347,14.46881-16.24739,9.91643-9.171,19.9935-18.25186,30.6915-26.47552a282.669,282.669,0,0,1,58.19462-34.54607,318.08591,318.08591,0,0,1,62.39368-19.928c24.11621-5.14424,48.40323-6.54978,72.85562-5.65318,11.44406.41962,22.82544,2.50347,34.23947,3.79582,17.319,1.961,33.98221,6.73363,50.30777,12.50536,28.85987,10.20309,56.00794,23.8838,80.07373,42.97989,12.50733,9.92446,24.98969,20.0758,36.19178,31.40206a258.80789,258.80789,0,0,1,39.45794,52.06842,252.17694,252.17694,0,0,1,27.978,69.37047,258.39832,258.39832,0,0,1,5.35089,35.42158,232.78268,232.78268,0,0,1,.95337,34.286c-.78369,13.899-2.67334,27.77014-4.76251,41.5506-1.88385,12.42633-3.83832,24.95139-7.23261,37.01917-10.86615,38.63314-27.42608,74.99493-46.40759,110.22134-15.38031,28.54318-31.40869,56.74136-47.41711,84.94077-17.51947,30.86132-35.12851,61.67608-53.10584,92.27179-15.16888,25.816-30.95669,51.26788-46.4039,76.921-15.19339,25.23156-30.19678,50.578-45.48291,75.753C358.72852,849.77136,346.2933,869.57245,333.45123,890.32831Zm4.19559-821.20846c-13.36539,1.1522-22.55252,2.0833-31.76044,2.7076-16.59414,1.1251-32.595,5.08628-48.42859,9.85735-22.834,6.88047-44.49267,16.40945-64.058,30.13314-11.25436,7.89413-22.55675,15.92286-32.71477,25.12972a229.34451,229.34451,0,0,0-40.52061,47.78267c-9.41506,14.95088-17.6062,30.43141-22.93788,47.05382C88.87442,257.82327,83.84542,284.57251,86.863,312.219c1.72859,15.83689,2.75,31.78071,5.21076,47.50092,3.73956,23.89,13.04056,46.18518,22.46251,68.22354,7.9023,18.48386,17.30584,36.34351,26.44865,54.27353,6.9072,13.54584,14.28537,26.86041,21.75029,40.11093q19.16384,34.01652,38.71446,67.81494c10.37575,18.0083,20.92674,35.91565,31.409,53.86249,10.36878,17.75275,20.62493,35.57294,31.16306,53.22467,8.4779,14.20081,17.35452,28.16309,25.95685,42.29047,6.38321,10.48309,12.62811,21.05072,18.902,31.6,7.41153,12.46235,14.742,24.97364,22.30637,37.34211.40665.66491,3.47827.78924,3.909.17822,3.48535-4.94489,6.77063-10.04572,9.8623-15.25025,8.90494-14.9906,17.5571-30.1325,26.565-45.06024,7.26285-12.036,15.08484-23.735,22.324-35.78466,9.99884-16.64313,19.66925-33.4834,29.50674-50.22376,6.628-11.27881,13.3978-22.47534,19.934-33.80688,12.11609-21.00477,24.07163-42.10224,36.16321-63.12122,8.36008-14.53241,17.15717-28.823,25.18286-43.536,11.04544-20.24875,21.47861-40.83051,32.3013-61.202,10.0437-18.90527,18.037-38.67,25.30469-58.769,6.51843-18.02679,12.15027-36.227,13.9884-55.45114,1.39-14.53708,4.08008-28.99557,4.67188-43.55081.63434-15.60123-1.5221-31.13-4.66535-46.51968a203.427,203.427,0,0,0-27.609-68.29258C542.44,178.26443,535.3855,168.97194,528.293,159.7787c-4.725-6.12456-9.66956-12.287-15.47717-17.32414-10.644-9.23181-21.50919-18.37444-33.18732-26.20414C466.46121,107.42229,452.8194,98.9289,438.4277,92.3967c-17.02633-7.728-34.8139-14.04712-53.59655-16.64684C367.77847,73.3896,350.73526,70.96122,337.64682,69.11985Z"/>
    <path class="cls-1" d="M337.64682,69.11985c13.08844,1.84137,30.13165,4.26975,47.18433,6.63,18.78265,2.59972,36.57022,8.91879,53.59655,16.64684,14.3917,6.5322,28.03351,15.02559,41.20084,23.85372,11.67813,7.8297,22.5433,16.97233,33.18732,26.20414,5.80761,5.03711,10.75213,11.19958,15.47717,17.32414,7.09247,9.19324,14.147,18.48573,20.33282,28.29405a203.427,203.427,0,0,1,27.609,68.29258c3.14325,15.38967,5.29969,30.91845,4.66535,46.51968-.5918,14.55524-3.28186,29.01373-4.67188,43.55081-1.83813,19.22409-7.47,37.42435-13.9884,55.45114-7.2677,20.09891-15.261,39.86368-25.30469,58.769-10.82269,20.37149-21.25586,40.95325-32.3013,61.202-8.02569,14.713-16.82278,29.00354-25.18286,43.536-12.09158,21.019-24.04712,42.11645-36.16321,63.12122-6.53622,11.33154-13.306,22.52807-19.934,33.80688-9.83749,16.74036-19.5079,33.58063-29.50674,50.22376-7.23914,12.04968-15.06113,23.74865-22.324,35.78466-9.00787,14.92774-17.66,30.06964-26.565,45.06024-3.09167,5.20453-6.377,10.30536-9.8623,15.25025-.4307.611-3.50232.48669-3.909-.17822-7.56439-12.36847-14.89484-24.87976-22.30637-37.34211-6.27386-10.54931-12.51876-21.11694-18.902-31.6-8.60233-14.12738-17.47895-28.08966-25.95685-42.29047-10.53813-17.65173-20.79428-35.47192-31.16306-53.22467-10.48221-17.94684-21.0332-35.85419-31.409-53.86249q-19.49178-33.8301-38.71446-67.81494c-7.46492-13.25052-14.84309-26.56509-21.75029-40.11093-9.14281-17.93-18.54635-35.78967-26.44865-54.27353-9.42195-22.03836-18.72295-44.33349-22.46251-68.22354-2.46074-15.72021-3.48217-31.664-5.21076-47.50092-3.0176-27.64651,2.0114-54.39575,10.36353-80.43487,5.33168-16.62241,13.52282-32.10294,22.93788-47.05382A229.34451,229.34451,0,0,1,160.685,136.94766c10.158-9.20686,21.46041-17.23559,32.71477-25.12972,19.56531-13.72369,41.224-23.25267,64.058-30.13314,15.83356-4.77107,31.83445-8.73225,48.42859-9.85735C315.0943,71.20315,324.28143,70.272,337.64682,69.11985ZM494.82129,316.50671a125.87023,125.87023,0,0,0-7.10761-48.71179,207.83913,207.83913,0,0,0-13.9945-30.61642c-4.94129-8.98694-10.47306-17.90169-17.15378-25.6301-16.77835-19.40944-37.00043-34.60893-60.88312-44.30522-25.53744-10.3681-52.05078-14.37648-79.65631-11.24068a164.36621,164.36621,0,0,0-47.9863,12.9428A159.027,159.027,0,0,0,223.6134,198.236a160.9124,160.9124,0,0,0-39.813,57.50847c-6.07027,14.77978-10.25313,30.11636-11.43559,45.94723-.85973,11.5101.02636,23.2092.8537,34.77249,1.13118,15.81034,5.98809,30.77512,12.30523,45.20478A155.19,155.19,0,0,0,225.26637,436.397c7.58316,6.69007,16.10848,12.32581,24.3217,18.28067,2.855,2.07,6.96,3.02115,8.82929,5.66178,1.61639,2.28332,3.02908,2.3269,5.08679,2.585a26.05071,26.05071,0,0,1,4.19171,1.22623c7.48053,2.27633,13.90479,6.594,21.88843,8.515a205.2066,205.2066,0,0,0,61.03589,5.16742,47.8548,47.8548,0,0,0,9.75778-1.2652c13.70148-3.77167,27.96362-5.65606,40.70233-12.694,7.5025-4.145,15.39719-7.301,22.44382-12.579A237.14171,237.14171,0,0,0,453.663,424.71927a145.9722,145.9722,0,0,0,26.17621-38.98279C489.97687,364.08,495.79233,341.36609,494.82129,316.50671Z"/>
    <path d="M494.82129,316.50671c.971,24.85938-4.84442,47.57325-14.98206,69.22977A145.9722,145.9722,0,0,1,453.663,424.71927a237.14171,237.14171,0,0,1-30.13891,26.57565c-7.04663,5.278-14.94132,8.434-22.44382,12.579-12.73871,7.038-27.00085,8.92236-40.70233,12.694a47.8548,47.8548,0,0,1-9.75778,1.2652,205.2066,205.2066,0,0,1-61.03589-5.16742c-7.98364-1.921-14.4079-6.23871-21.88843-8.515a26.05071,26.05071,0,0,0-4.19171-1.22623c-2.05771-.25806-3.4704-.30164-5.08679-2.585-1.86933-2.64063-5.97432-3.5918-8.82929-5.66178-8.21322-5.95486-16.73854-11.5906-24.3217-18.28067A155.19,155.19,0,0,1,185.52374,381.669c-6.31714-14.42966-11.174-29.39444-12.30523-45.20478-.82734-11.56329-1.71343-23.26239-.8537-34.77249,1.18246-15.83087,5.36532-31.16745,11.43559-45.94723a160.9124,160.9124,0,0,1,39.813-57.50847,159.027,159.027,0,0,1,44.42627-29.29068,164.36621,164.36621,0,0,1,47.9863-12.9428c27.60553-3.1358,54.11887.87258,79.65631,11.24068,23.88269,9.69629,44.10477,24.89578,60.88312,44.30522,6.68072,7.72841,12.21249,16.64316,17.15378,25.6301a207.83913,207.83913,0,0,1,13.9945,30.61642A125.87023,125.87023,0,0,1,494.82129,316.50671ZM333.68021,437.1265c67.181-.5774,118.275-53.25232,120.31277-116.04722,2.32672-71.69775-54.97989-124.90336-119.94473-125.00079a120.30608,120.30608,0,0,0-121.07684,116.299C210.60027,383.12308,267.7243,437.52924,333.68021,437.1265Z"/>
    <path class="cls-1" d="M333.68021,437.1265c-65.95591.40274-123.07994-54.00342-120.7088-124.74906A120.30608,120.30608,0,0,1,334.04825,196.07849c64.96484.09743,122.27145,53.303,119.94473,125.00079C451.95523,383.87418,400.86118,436.5491,333.68021,437.1265Z"/>
  </g>
</svg>
