<svg xmlns="http://www.w3.org/2000/svg" width="1889" height="231" style="shape-rendering:geometricPrecision;text-rendering:geometricPrecision;image-rendering:optimizeQuality;fill-rule:evenodd;clip-rule:evenodd"><path style="opacity:.992" fill="#626b6f" d="M-.5-.5h106v69h120v-69h106v231h-106v-76h-120v76H-.5z"/><path style="opacity:.986" fill="#626b6f" d="M539.5-.5h116q71 115.4 141 231h-116q-70-115.6-141-231"/><path style="opacity:.987" fill="#626b6f" d="M759.5-.5h121q38.7 63 77 126.5-29.1 49.8-60 98.5-69.4-112.4-138-225"/><path style="opacity:.986" fill="#626b6f" d="M1046.5-.5h116q-71 115.4-141 231h-116q69.9-115.8 141-231M1271.5-.5h116q71 115.4 141 231h-116q-70-115.8-141-231"/><path style="opacity:.992" fill="#626b6f" d="M1590.5-.5h106v145h192v86h-298z"/><path style="opacity:.983" fill="#626b6f" d="M514.5 230.5h-121q68.3-113.4 138-226 30.9 48.6 60 98.5-38.9 63.6-77 127.5M1245.5 230.5h-120q68.4-113.2 137.5-226 30.8 48.9 60.5 98.5-38.7 63.9-78 127.5"/></svg>
