<svg width="21" height="21" viewBox="0 0 21 21" fill="none" xmlns="http://www.w3.org/2000/svg">
<g clip-path="url(#clip0_3_1457)">
<path d="M16.8267 1L11.8032 1C11.647 0.999887 11.4971 1.06159 11.3863 1.17164L1.34327 11.2122C1.12342 11.4332 1 11.7322 1 12.0438C1 12.3555 1.12342 12.6545 1.34327 12.8755L6.12452 17.6567C6.34552 17.8766 6.64458 18 6.95633 18C7.26808 18 7.56715 17.8766 7.78815 17.6567L17.8284 7.62018C17.9384 7.50937 18.0001 7.35952 18 7.20335L18 2.17692C18.0007 2.02247 17.9709 1.86938 17.9123 1.72649C17.8536 1.5836 17.7673 1.45372 17.6583 1.34433C17.5492 1.23494 17.4196 1.1482 17.2769 1.08911C17.1342 1.03001 16.9812 0.99973 16.8267 1Z" stroke="white" stroke-linecap="round" stroke-linejoin="round"/>
<path d="M14.5 6C14.2033 6 13.9133 5.91203 13.6666 5.7472C13.42 5.58238 13.2277 5.34811 13.1142 5.07403C13.0006 4.79994 12.9709 4.49834 13.0288 4.20737C13.0867 3.91639 13.2296 3.64912 13.4393 3.43934C13.6491 3.22956 13.9164 3.0867 14.2074 3.02882C14.4983 2.97094 14.7999 3.00065 15.074 3.11418C15.3481 3.22771 15.5824 3.41997 15.7472 3.66665C15.912 3.91332 16 4.20333 16 4.5C16 4.89783 15.842 5.27936 15.5607 5.56066C15.2794 5.84196 14.8978 6 14.5 6Z" fill="white"/>
<path d="M9 19L19.8345 8.52C19.8883 8.46744 19.9307 8.40495 19.9592 8.33624C19.9876 8.26753 20.0014 8.19399 19.9999 8.12L19.9999 3" stroke="white" stroke-linecap="round" stroke-linejoin="round"/>
</g>
<defs>
<clipPath id="clip0_3_1457">
<rect width="21" height="21" fill="white"/>
</clipPath>
</defs>
</svg>
